# 3ds Max Wavefront OBJ Exporter v0.99 - (c)2007 guruware
# File Created: 20.01.2020 15:34:43

mtllib paddle.mtl

#
# object Box003
#

v  -1.5500 0.0000 3.8000
v  -1.5500 0.0000 -3.8000
v  1.5500 0.0000 -3.8000
v  1.5500 0.0000 3.8000
v  -1.5500 4.0000 3.8000
v  1.5500 4.0000 3.8000
v  1.5500 4.0000 -3.8000
v  -1.5500 4.0000 -3.8000
v  -1.5500 0.2000 4.0000
v  1.5500 0.2000 4.0000
v  1.5500 3.8000 4.0000
v  -1.5500 3.8000 4.0000
v  1.7500 0.2000 3.8000
v  1.7500 0.2000 -3.8000
v  1.7500 3.8000 -3.8000
v  1.7500 3.8000 3.8000
v  1.5500 0.2000 -4.0000
v  -1.5500 0.2000 -4.0000
v  -1.5500 3.8000 -4.0000
v  1.5500 3.8000 -4.0000
v  -1.7500 0.2000 -3.8000
v  -1.7500 0.2000 3.8000
v  -1.7500 3.8000 3.8000
v  -1.7500 3.8000 -3.8000
v  -1.5500 0.0125 3.8875
v  -1.6313 0.0250 3.8812
v  -1.6375 0.0125 3.8000
v  -1.6937 0.0562 3.8688
v  -1.7000 0.0500 3.8000
v  -1.5500 0.0500 3.9500
v  -1.6188 0.0562 3.9437
v  -1.6750 0.0750 3.9250
v  -1.6375 0.0125 -3.8000
v  -1.6313 0.0250 -3.8813
v  -1.5500 0.0125 -3.8875
v  -1.6188 0.0562 -3.9437
v  -1.5500 0.0500 -3.9500
v  -1.7000 0.0500 -3.8000
v  -1.6937 0.0562 -3.8688
v  -1.6750 0.0750 -3.9250
v  1.5500 0.0125 -3.8875
v  1.6313 0.0250 -3.8812
v  1.6375 0.0125 -3.8000
v  1.6937 0.0562 -3.8688
v  1.7000 0.0500 -3.8000
v  1.5500 0.0500 -3.9500
v  1.6188 0.0562 -3.9437
v  1.6750 0.0750 -3.9250
v  1.6375 0.0125 3.8000
v  1.6313 0.0250 3.8813
v  1.5500 0.0125 3.8875
v  1.6188 0.0562 3.9437
v  1.5500 0.0500 3.9500
v  1.7000 0.0500 3.8000
v  1.6937 0.0562 3.8688
v  1.6750 0.0750 3.9250
v  -1.6375 3.9875 3.8000
v  -1.6313 3.9750 3.8813
v  -1.5500 3.9875 3.8875
v  -1.6187 3.9437 3.9437
v  -1.5500 3.9500 3.9500
v  -1.7000 3.9500 3.8000
v  -1.6938 3.9437 3.8687
v  -1.6750 3.9250 3.9250
v  1.5500 3.9875 3.8875
v  1.6312 3.9750 3.8812
v  1.6375 3.9875 3.8000
v  1.6938 3.9437 3.8687
v  1.7000 3.9500 3.8000
v  1.5500 3.9500 3.9500
v  1.6187 3.9437 3.9437
v  1.6750 3.9250 3.9250
v  1.6375 3.9875 -3.8000
v  1.6313 3.9750 -3.8813
v  1.5500 3.9875 -3.8875
v  1.6187 3.9437 -3.9437
v  1.5500 3.9500 -3.9500
v  1.7000 3.9500 -3.8000
v  1.6938 3.9437 -3.8687
v  1.6750 3.9250 -3.9250
v  -1.5500 3.9875 -3.8875
v  -1.6312 3.9750 -3.8812
v  -1.6375 3.9875 -3.8000
v  -1.6938 3.9437 -3.8687
v  -1.7000 3.9500 -3.8000
v  -1.5500 3.9500 -3.9500
v  -1.6187 3.9437 -3.9437
v  -1.6750 3.9250 -3.9250
v  -1.6375 0.2000 3.9875
v  -1.6313 0.1188 3.9750
v  -1.5500 0.1125 3.9875
v  -1.7000 0.2000 3.9500
v  -1.6938 0.1313 3.9437
v  1.5500 0.1125 3.9875
v  1.6313 0.1188 3.9750
v  1.6375 0.2000 3.9875
v  1.6938 0.1313 3.9437
v  1.7000 0.2000 3.9500
v  1.6375 3.8000 3.9875
v  1.6313 3.8813 3.9750
v  1.5500 3.8875 3.9875
v  1.7000 3.8000 3.9500
v  1.6938 3.8687 3.9437
v  -1.5500 3.8875 3.9875
v  -1.6312 3.8812 3.9750
v  -1.6375 3.8000 3.9875
v  -1.6938 3.8687 3.9437
v  -1.7000 3.8000 3.9500
v  1.7375 0.2000 3.8875
v  1.7250 0.1188 3.8812
v  1.7375 0.1125 3.8000
v  1.7375 0.1125 -3.8000
v  1.7250 0.1188 -3.8813
v  1.7375 0.2000 -3.8875
v  1.6938 0.1313 -3.9437
v  1.7000 0.2000 -3.9500
v  1.7375 3.8000 -3.8875
v  1.7250 3.8813 -3.8812
v  1.7375 3.8875 -3.8000
v  1.7000 3.8000 -3.9500
v  1.6938 3.8687 -3.9437
v  1.7375 3.8875 3.8000
v  1.7250 3.8812 3.8813
v  1.7375 3.8000 3.8875
v  1.6375 0.2000 -3.9875
v  1.6313 0.1188 -3.9750
v  1.5500 0.1125 -3.9875
v  -1.5500 0.1125 -3.9875
v  -1.6313 0.1188 -3.9750
v  -1.6375 0.2000 -3.9875
v  -1.6938 0.1313 -3.9437
v  -1.7000 0.2000 -3.9500
v  -1.6375 3.8000 -3.9875
v  -1.6313 3.8813 -3.9750
v  -1.5500 3.8875 -3.9875
v  -1.7000 3.8000 -3.9500
v  -1.6938 3.8687 -3.9437
v  1.5500 3.8875 -3.9875
v  1.6312 3.8812 -3.9750
v  1.6375 3.8000 -3.9875
v  -1.7375 0.2000 -3.8875
v  -1.7250 0.1188 -3.8812
v  -1.7375 0.1125 -3.8000
v  -1.7375 0.1125 3.8000
v  -1.7250 0.1188 3.8813
v  -1.7375 0.2000 3.8875
v  -1.7375 3.8000 3.8875
v  -1.7250 3.8813 3.8812
v  -1.7375 3.8875 3.8000
v  -1.7375 3.8875 -3.8000
v  -1.7250 3.8812 -3.8813
v  -1.7375 3.8000 -3.8875
# 152 vertices

vn -0.0705 -0.9950 0.0705
vn -0.0705 -0.9950 -0.0705
vn 0.0705 -0.9950 -0.0705
vn 0.0705 -0.9950 0.0705
vn -0.0705 0.9950 0.0705
vn 0.0705 0.9950 0.0705
vn 0.0705 0.9950 -0.0705
vn -0.0705 0.9950 -0.0705
vn -0.0705 -0.0705 0.9950
vn 0.0705 -0.0705 0.9950
vn 0.0705 0.0705 0.9950
vn -0.0705 0.0705 0.9950
vn 0.9950 -0.0705 0.0705
vn 0.9950 -0.0705 -0.0705
vn 0.9950 0.0705 -0.0705
vn 0.9950 0.0705 0.0705
vn 0.0705 -0.0705 -0.9950
vn -0.0705 -0.0705 -0.9950
vn -0.0705 0.0705 -0.9950
vn 0.0705 0.0705 -0.9950
vn -0.9950 -0.0705 -0.0705
vn -0.9950 -0.0705 0.0705
vn -0.9950 0.0705 0.0705
vn -0.9950 0.0705 -0.0705
vn -0.0836 -0.9387 0.3346
vn -0.3252 -0.8880 0.3252
vn -0.3346 -0.9387 0.0836
vn -0.6834 -0.6834 0.2565
vn -0.7057 -0.7057 0.0633
vn -0.0633 -0.7057 0.7057
vn -0.2565 -0.6834 0.6834
vn -0.5774 -0.5774 0.5774
vn -0.3346 -0.9387 -0.0836
vn -0.3252 -0.8880 -0.3252
vn -0.0836 -0.9387 -0.3346
vn -0.2565 -0.6834 -0.6834
vn -0.0633 -0.7057 -0.7057
vn -0.7057 -0.7057 -0.0633
vn -0.6834 -0.6834 -0.2565
vn -0.5774 -0.5774 -0.5774
vn 0.0836 -0.9387 -0.3346
vn 0.3252 -0.8880 -0.3252
vn 0.3346 -0.9387 -0.0836
vn 0.6834 -0.6834 -0.2565
vn 0.7057 -0.7057 -0.0633
vn 0.0633 -0.7057 -0.7057
vn 0.2565 -0.6834 -0.6834
vn 0.5774 -0.5774 -0.5774
vn 0.3346 -0.9387 0.0836
vn 0.3252 -0.8880 0.3252
vn 0.0836 -0.9387 0.3346
vn 0.2565 -0.6834 0.6834
vn 0.0633 -0.7057 0.7057
vn 0.7057 -0.7057 0.0633
vn 0.6834 -0.6834 0.2565
vn 0.5774 -0.5774 0.5774
vn -0.3346 0.9387 0.0836
vn -0.3252 0.8880 0.3252
vn -0.0836 0.9387 0.3346
vn -0.2565 0.6834 0.6834
vn -0.0633 0.7057 0.7057
vn -0.7057 0.7057 0.0633
vn -0.6834 0.6834 0.2565
vn -0.5773 0.5774 0.5774
vn 0.0836 0.9387 0.3346
vn 0.3252 0.8880 0.3252
vn 0.3346 0.9387 0.0836
vn 0.6834 0.6834 0.2565
vn 0.7057 0.7057 0.0633
vn 0.0633 0.7057 0.7057
vn 0.2565 0.6834 0.6834
vn 0.5773 0.5774 0.5774
vn 0.3346 0.9387 -0.0836
vn 0.3252 0.8880 -0.3252
vn 0.0836 0.9387 -0.3346
vn 0.2565 0.6834 -0.6834
vn 0.0633 0.7057 -0.7057
vn 0.7057 0.7057 -0.0633
vn 0.6834 0.6834 -0.2565
vn 0.5773 0.5774 -0.5774
vn -0.0836 0.9387 -0.3346
vn -0.3252 0.8880 -0.3252
vn -0.3346 0.9387 -0.0836
vn -0.6834 0.6834 -0.2565
vn -0.7057 0.7057 -0.0633
vn -0.0633 0.7057 -0.7057
vn -0.2565 0.6834 -0.6834
vn -0.5773 0.5774 -0.5774
vn -0.3346 -0.0836 0.9387
vn -0.3252 -0.3252 0.8880
vn -0.0836 -0.3346 0.9387
vn -0.7057 -0.0633 0.7057
vn -0.6834 -0.2565 0.6834
vn 0.0836 -0.3346 0.9387
vn 0.3252 -0.3252 0.8880
vn 0.3346 -0.0836 0.9387
vn 0.6834 -0.2565 0.6834
vn 0.7057 -0.0633 0.7057
vn 0.3346 0.0836 0.9387
vn 0.3252 0.3252 0.8880
vn 0.0836 0.3346 0.9387
vn 0.7057 0.0633 0.7057
vn 0.6834 0.2565 0.6834
vn -0.0836 0.3346 0.9387
vn -0.3252 0.3252 0.8880
vn -0.3346 0.0836 0.9387
vn -0.6834 0.2565 0.6834
vn -0.7057 0.0633 0.7057
vn 0.9387 -0.0836 0.3346
vn 0.8880 -0.3252 0.3252
vn 0.9387 -0.3346 0.0836
vn 0.9387 -0.3346 -0.0836
vn 0.8880 -0.3252 -0.3252
vn 0.9387 -0.0836 -0.3346
vn 0.6834 -0.2565 -0.6834
vn 0.7057 -0.0633 -0.7057
vn 0.9387 0.0836 -0.3346
vn 0.8880 0.3252 -0.3252
vn 0.9387 0.3346 -0.0836
vn 0.7057 0.0633 -0.7057
vn 0.6834 0.2565 -0.6834
vn 0.9387 0.3346 0.0836
vn 0.8880 0.3252 0.3252
vn 0.9387 0.0836 0.3346
vn 0.3346 -0.0836 -0.9387
vn 0.3252 -0.3252 -0.8880
vn 0.0836 -0.3346 -0.9387
vn -0.0836 -0.3346 -0.9387
vn -0.3252 -0.3252 -0.8880
vn -0.3346 -0.0836 -0.9387
vn -0.6834 -0.2565 -0.6834
vn -0.7057 -0.0633 -0.7057
vn -0.3346 0.0836 -0.9387
vn -0.3252 0.3252 -0.8880
vn -0.0836 0.3346 -0.9387
vn -0.7057 0.0633 -0.7057
vn -0.6834 0.2565 -0.6834
vn 0.0836 0.3346 -0.9387
vn 0.3252 0.3252 -0.8880
vn 0.3346 0.0836 -0.9387
vn -0.9387 -0.0836 -0.3346
vn -0.8880 -0.3252 -0.3252
vn -0.9387 -0.3346 -0.0836
vn -0.9387 -0.3346 0.0836
vn -0.8880 -0.3252 0.3252
vn -0.9387 -0.0836 0.3346
vn -0.9387 0.0836 0.3346
vn -0.8880 0.3252 0.3252
vn -0.9387 0.3346 0.0836
vn -0.9387 0.3346 -0.0836
vn -0.8880 0.3252 -0.3252
vn -0.9387 0.0836 -0.3346
# 152 vertex normals

vt 1.1228 -0.1680 -0.2032
vt 1.1228 1.1680 -0.2032
vt -0.1228 1.1680 -0.2032
vt -0.1228 -0.1680 -0.2032
vt -0.1228 -0.1680 1.2032
vt 1.1228 -0.1680 1.2032
vt 1.1228 1.1680 1.2032
vt -0.1228 1.1680 1.2032
vt -0.1228 -0.1329 -0.2032
vt 1.1228 -0.1329 -0.2032
vt 1.1228 1.1329 -0.2032
vt -0.1228 1.1329 -0.2032
vt -0.1680 -0.1329 1.2032
vt 1.1680 -0.1329 1.2032
vt 1.1680 1.1329 1.2032
vt -0.1680 1.1329 1.2032
vt -0.1228 -0.1329 1.2032
vt 1.1228 -0.1329 1.2032
vt 1.1228 1.1329 1.2032
vt -0.1228 1.1329 1.2032
vt -0.1680 -0.1329 -0.2032
vt 1.1680 -0.1329 -0.2032
vt 1.1680 1.1329 -0.2032
vt -0.1680 1.1329 -0.2032
vt 1.1228 -0.1834 -0.1988
vt 1.1555 -0.1823 -0.1944
vt 1.1580 -0.1680 -0.1988
vt 1.1806 -0.1801 -0.1834
vt 1.1831 -0.1680 -0.1856
vt 1.1228 -0.1944 -0.1856
vt 1.1504 -0.1933 -0.1834
vt 1.1730 -0.1900 -0.1768
vt 1.1580 1.1680 -0.1988
vt 1.1555 1.1823 -0.1944
vt 1.1228 1.1834 -0.1988
vt 1.1504 1.1933 -0.1834
vt 1.1228 1.1944 -0.1856
vt 1.1831 1.1680 -0.1856
vt 1.1806 1.1801 -0.1834
vt 1.1730 1.1900 -0.1768
vt -0.1228 1.1834 -0.1988
vt -0.1555 1.1823 -0.1944
vt -0.1580 1.1680 -0.1988
vt -0.1806 1.1801 -0.1834
vt -0.1831 1.1680 -0.1856
vt -0.1228 1.1944 -0.1856
vt -0.1504 1.1933 -0.1834
vt -0.1730 1.1900 -0.1768
vt -0.1580 -0.1680 -0.1988
vt -0.1555 -0.1823 -0.1944
vt -0.1228 -0.1834 -0.1988
vt -0.1504 -0.1933 -0.1834
vt -0.1228 -0.1944 -0.1856
vt -0.1831 -0.1680 -0.1856
vt -0.1806 -0.1801 -0.1834
vt -0.1730 -0.1900 -0.1768
vt -0.1580 -0.1680 1.1988
vt -0.1555 -0.1823 1.1944
vt -0.1228 -0.1834 1.1988
vt -0.1504 -0.1933 1.1834
vt -0.1228 -0.1944 1.1856
vt -0.1831 -0.1680 1.1856
vt -0.1806 -0.1801 1.1834
vt -0.1730 -0.1900 1.1768
vt 1.1228 -0.1834 1.1988
vt 1.1555 -0.1823 1.1944
vt 1.1580 -0.1680 1.1988
vt 1.1806 -0.1801 1.1834
vt 1.1831 -0.1680 1.1856
vt 1.1228 -0.1944 1.1856
vt 1.1504 -0.1933 1.1834
vt 1.1730 -0.1900 1.1768
vt 1.1580 1.1680 1.1988
vt 1.1555 1.1823 1.1944
vt 1.1228 1.1834 1.1988
vt 1.1504 1.1933 1.1834
vt 1.1228 1.1944 1.1856
vt 1.1831 1.1680 1.1856
vt 1.1806 1.1801 1.1834
vt 1.1730 1.1900 1.1768
vt -0.1228 1.1834 1.1988
vt -0.1555 1.1823 1.1944
vt -0.1580 1.1680 1.1988
vt -0.1806 1.1801 1.1834
vt -0.1831 1.1680 1.1856
vt -0.1228 1.1944 1.1856
vt -0.1504 1.1933 1.1834
vt -0.1730 1.1900 1.1768
vt -0.1580 -0.1329 -0.2010
vt -0.1555 -0.1614 -0.1988
vt -0.1228 -0.1636 -0.2010
vt 1.1228 -0.2010 -0.1636
vt 1.1555 -0.1988 -0.1614
vt 1.2010 -0.1329 -0.1580
vt 1.1944 -0.1329 -0.1831
vt 1.1933 -0.1570 -0.1806
vt 1.1988 -0.1614 -0.1555
vt 1.1900 -0.1768 -0.1730
vt 1.1933 -0.1834 -0.1504
vt 1.1228 -0.1636 -0.2010
vt 1.1555 -0.1614 -0.1988
vt 1.1580 -0.1329 -0.2010
vt -0.2010 -0.1329 1.1580
vt -0.1988 -0.1614 1.1555
vt -0.1933 -0.1570 1.1806
vt -0.1944 -0.1329 1.1831
vt -0.1228 -0.2010 -0.1636
vt -0.1555 -0.1988 -0.1614
vt -0.1933 -0.1834 1.1504
vt -0.1900 -0.1768 1.1730
vt 1.1580 1.1329 -0.2010
vt 1.1555 1.1614 -0.1988
vt 1.1228 1.1636 -0.2010
vt 1.1228 -0.2010 1.1636
vt 1.1555 -0.1988 1.1614
vt -0.2010 1.1329 1.1580
vt -0.1944 1.1329 1.1831
vt -0.1933 1.1570 1.1806
vt -0.1988 1.1614 1.1555
vt -0.1900 1.1768 1.1730
vt -0.1933 1.1834 1.1504
vt -0.1228 1.1636 -0.2010
vt -0.1555 1.1614 -0.1988
vt -0.1580 1.1329 -0.2010
vt 1.2010 1.1329 -0.1580
vt 1.1988 1.1614 -0.1555
vt 1.1933 1.1570 -0.1806
vt 1.1944 1.1329 -0.1831
vt -0.1228 -0.2010 1.1636
vt -0.1555 -0.1988 1.1614
vt 1.1933 1.1834 -0.1504
vt 1.1900 1.1768 -0.1730
vt -0.1834 -0.1329 1.1982
vt -0.1823 -0.1614 1.1931
vt -0.1680 -0.1636 1.1982
vt -0.1801 -0.1834 1.1806
vt -0.1680 -0.1856 1.1831
vt 1.1680 -0.1636 1.1982
vt 1.1823 -0.1614 1.1931
vt 1.1834 -0.1329 1.1982
vt 1.1933 -0.1570 1.1806
vt 1.1944 -0.1329 1.1831
vt 1.1680 -0.1856 1.1831
vt 1.1801 -0.1834 1.1806
vt 1.1900 -0.1768 1.1730
vt 1.1834 1.1329 1.1982
vt 1.1823 1.1614 1.1931
vt 1.1680 1.1636 1.1982
vt 1.1801 1.1834 1.1806
vt 1.1680 1.1856 1.1831
vt 1.1944 1.1329 1.1831
vt 1.1933 1.1570 1.1806
vt 1.1900 1.1768 1.1730
vt -0.1680 1.1636 1.1982
vt -0.1823 1.1614 1.1931
vt -0.1834 1.1329 1.1982
vt -0.1680 1.1856 1.1831
vt -0.1801 1.1834 1.1806
vt -0.1580 -0.1329 1.2010
vt -0.1555 -0.1614 1.1988
vt -0.1228 -0.1636 1.2010
vt -0.1228 1.2010 -0.1636
vt -0.1555 1.1988 -0.1614
vt 1.2010 -0.1329 1.1580
vt 1.1988 -0.1614 1.1555
vt 1.1933 -0.1834 1.1504
vt 1.1228 -0.1636 1.2010
vt 1.1555 -0.1614 1.1988
vt 1.1580 -0.1329 1.2010
vt -0.2010 -0.1329 -0.1580
vt -0.1988 -0.1614 -0.1555
vt -0.1933 -0.1570 -0.1806
vt -0.1944 -0.1329 -0.1831
vt 1.1228 1.2010 -0.1636
vt 1.1555 1.1988 -0.1614
vt -0.1933 -0.1834 -0.1504
vt -0.1900 -0.1768 -0.1730
vt 1.1580 1.1329 1.2010
vt 1.1555 1.1614 1.1988
vt 1.1228 1.1636 1.2010
vt -0.1228 1.2010 1.1636
vt -0.1555 1.1988 1.1614
vt -0.2010 1.1329 -0.1580
vt -0.1944 1.1329 -0.1831
vt -0.1933 1.1570 -0.1806
vt -0.1988 1.1614 -0.1555
vt -0.1900 1.1768 -0.1730
vt -0.1933 1.1834 -0.1504
vt -0.1228 1.1636 1.2010
vt -0.1555 1.1614 1.1988
vt -0.1580 1.1329 1.2010
vt 1.2010 1.1329 1.1580
vt 1.1988 1.1614 1.1555
vt 1.1228 1.2010 1.1636
vt 1.1555 1.1988 1.1614
vt 1.1933 1.1834 1.1504
vt -0.1834 -0.1329 -0.1982
vt -0.1823 -0.1614 -0.1931
vt -0.1680 -0.1636 -0.1982
vt -0.1801 -0.1834 -0.1806
vt -0.1680 -0.1856 -0.1831
vt 1.1680 -0.1636 -0.1982
vt 1.1823 -0.1614 -0.1931
vt 1.1834 -0.1329 -0.1982
vt 1.1680 -0.1856 -0.1831
vt 1.1801 -0.1834 -0.1806
vt 1.1834 1.1329 -0.1982
vt 1.1823 1.1614 -0.1931
vt 1.1680 1.1636 -0.1982
vt 1.1801 1.1834 -0.1806
vt 1.1680 1.1856 -0.1831
vt -0.1680 1.1636 -0.1982
vt -0.1823 1.1614 -0.1931
vt -0.1834 1.1329 -0.1982
vt -0.1680 1.1856 -0.1831
vt -0.1801 1.1834 -0.1806
# 216 texture coords

o Box003
g Box003
usemtl Paddle_Material
s 1
f 1/1/1 2/2/2 3/3/3 4/4/4 
f 5/5/5 6/6/6 7/7/7 8/8/8 
f 9/9/9 10/10/10 11/11/11 12/12/12 
f 13/13/13 14/14/14 15/15/15 16/16/16 
f 17/17/17 18/18/18 19/19/19 20/20/20 
f 21/21/21 22/22/22 23/23/23 24/24/24 
f 1/1/1 25/25/25 26/26/26 27/27/27 
f 27/27/27 26/26/26 28/28/28 29/29/29 
f 25/25/25 30/30/30 31/31/31 26/26/26 
f 26/26/26 31/31/31 32/32/32 28/28/28 
f 2/2/2 33/33/33 34/34/34 35/35/35 
f 35/35/35 34/34/34 36/36/36 37/37/37 
f 33/33/33 38/38/38 39/39/39 34/34/34 
f 34/34/34 39/39/39 40/40/40 36/36/36 
f 3/3/3 41/41/41 42/42/42 43/43/43 
f 43/43/43 42/42/42 44/44/44 45/45/45 
f 41/41/41 46/46/46 47/47/47 42/42/42 
f 42/42/42 47/47/47 48/48/48 44/44/44 
f 4/4/4 49/49/49 50/50/50 51/51/51 
f 51/51/51 50/50/50 52/52/52 53/53/53 
f 49/49/49 54/54/54 55/55/55 50/50/50 
f 50/50/50 55/55/55 56/56/56 52/52/52 
f 5/5/5 57/57/57 58/58/58 59/59/59 
f 59/59/59 58/58/58 60/60/60 61/61/61 
f 57/57/57 62/62/62 63/63/63 58/58/58 
f 58/58/58 63/63/63 64/64/64 60/60/60 
f 6/6/6 65/65/65 66/66/66 67/67/67 
f 67/67/67 66/66/66 68/68/68 69/69/69 
f 65/65/65 70/70/70 71/71/71 66/66/66 
f 66/66/66 71/71/71 72/72/72 68/68/68 
f 7/7/7 73/73/73 74/74/74 75/75/75 
f 75/75/75 74/74/74 76/76/76 77/77/77 
f 73/73/73 78/78/78 79/79/79 74/74/74 
f 74/74/74 79/79/79 80/80/80 76/76/76 
f 8/8/8 81/81/81 82/82/82 83/83/83 
f 83/83/83 82/82/82 84/84/84 85/85/85 
f 81/81/81 86/86/86 87/87/87 82/82/82 
f 82/82/82 87/87/87 88/88/88 84/84/84 
f 9/9/9 89/89/89 90/90/90 91/91/91 
f 91/92/91 90/93/90 31/31/31 30/30/30 
f 89/94/89 92/95/92 93/96/93 90/97/90 
f 90/97/90 93/96/93 32/98/32 31/99/31 
f 10/10/10 94/100/94 95/101/95 96/102/96 
f 96/103/96 95/104/95 97/105/97 98/106/98 
f 94/107/94 53/53/53 52/52/52 95/108/95 
f 95/104/95 52/109/52 56/110/56 97/105/97 
f 11/11/11 99/111/99 100/112/100 101/113/101 
f 101/114/101 100/115/100 71/71/71 70/70/70 
f 99/116/99 102/117/102 103/118/103 100/119/100 
f 100/119/100 103/118/103 72/120/72 71/121/71 
f 12/12/12 104/122/104 105/123/105 106/124/106 
f 106/125/106 105/126/105 107/127/107 108/128/108 
f 104/129/104 61/61/61 60/60/60 105/130/105 
f 105/126/105 60/131/60 64/132/64 107/127/107 
f 13/13/13 109/133/109 110/134/110 111/135/111 
f 111/135/111 110/134/110 55/136/55 54/137/54 
f 109/133/109 98/106/98 97/105/97 110/134/110 
f 110/134/110 97/105/97 56/110/56 55/136/55 
f 14/14/14 112/138/112 113/139/113 114/140/114 
f 114/140/114 113/139/113 115/141/115 116/142/116 
f 112/138/112 45/143/45 44/144/44 113/139/113 
f 113/139/113 44/144/44 48/145/48 115/141/115 
f 15/15/15 117/146/117 118/147/118 119/148/119 
f 119/148/119 118/147/118 79/149/79 78/150/78 
f 117/146/117 120/151/120 121/152/121 118/147/118 
f 118/147/118 121/152/121 80/153/80 79/149/79 
f 16/16/16 122/154/122 123/155/123 124/156/124 
f 124/156/124 123/155/123 103/118/103 102/117/102 
f 122/154/122 69/157/69 68/158/68 123/155/123 
f 123/155/123 68/158/68 72/120/72 103/118/103 
f 17/17/17 125/159/125 126/160/126 127/161/127 
f 127/162/127 126/163/126 47/47/47 46/46/46 
f 125/164/125 116/142/116 115/141/115 126/165/126 
f 126/165/126 115/141/115 48/145/48 47/166/47 
f 18/18/18 128/167/128 129/168/129 130/169/130 
f 130/170/130 129/171/129 131/172/131 132/173/132 
f 128/174/128 37/37/37 36/36/36 129/175/129 
f 129/171/129 36/176/36 40/177/40 131/172/131 
f 19/19/19 133/178/133 134/179/134 135/180/135 
f 135/181/135 134/182/134 87/87/87 86/86/86 
f 133/183/133 136/184/136 137/185/137 134/186/134 
f 134/186/134 137/185/137 88/187/88 87/188/87 
f 20/20/20 138/189/138 139/190/139 140/191/140 
f 140/192/140 139/193/139 121/152/121 120/151/120 
f 138/194/138 77/77/77 76/76/76 139/195/139 
f 139/193/139 76/196/76 80/153/80 121/152/121 
f 21/21/21 141/197/141 142/198/142 143/199/143 
f 143/199/143 142/198/142 39/200/39 38/201/38 
f 141/197/141 132/173/132 131/172/131 142/198/142 
f 142/198/142 131/172/131 40/177/40 39/200/39 
f 22/22/22 144/202/144 145/203/145 146/204/146 
f 146/204/146 145/203/145 93/96/93 92/95/92 
f 144/202/144 29/205/29 28/206/28 145/203/145 
f 145/203/145 28/206/28 32/98/32 93/96/93 
f 23/23/23 147/207/147 148/208/148 149/209/149 
f 149/209/149 148/208/148 63/210/63 62/211/62 
f 147/207/147 108/128/108 107/127/107 148/208/148 
f 148/208/148 107/127/107 64/132/64 63/210/63 
f 24/24/24 150/212/150 151/213/151 152/214/152 
f 152/214/152 151/213/151 137/185/137 136/184/136 
f 150/212/150 85/215/85 84/216/84 151/213/151 
f 151/213/151 84/216/84 88/187/88 137/185/137 
f 2/2/2 1/1/1 27/27/27 33/33/33 
f 33/33/33 27/27/27 29/29/29 38/38/38 
f 3/3/3 2/2/2 35/35/35 41/41/41 
f 41/41/41 35/35/35 37/37/37 46/46/46 
f 4/4/4 3/3/3 43/43/43 49/49/49 
f 49/49/49 43/43/43 45/45/45 54/54/54 
f 1/1/1 4/4/4 51/51/51 25/25/25 
f 25/25/25 51/51/51 53/53/53 30/30/30 
f 6/6/6 5/5/5 59/59/59 65/65/65 
f 65/65/65 59/59/59 61/61/61 70/70/70 
f 7/7/7 6/6/6 67/67/67 73/73/73 
f 73/73/73 67/67/67 69/69/69 78/78/78 
f 8/8/8 7/7/7 75/75/75 81/81/81 
f 81/81/81 75/75/75 77/77/77 86/86/86 
f 5/5/5 8/8/8 83/83/83 57/57/57 
f 57/57/57 83/83/83 85/85/85 62/62/62 
f 10/10/10 9/9/9 91/91/91 94/100/94 
f 94/107/94 91/92/91 30/30/30 53/53/53 
f 11/11/11 10/10/10 96/102/96 99/111/99 
f 99/116/99 96/103/96 98/106/98 102/117/102 
f 12/12/12 11/11/11 101/113/101 104/122/104 
f 104/129/104 101/114/101 70/70/70 61/61/61 
f 9/9/9 12/12/12 106/124/106 89/89/89 
f 89/94/89 106/125/106 108/128/108 92/95/92 
f 14/14/14 13/13/13 111/135/111 112/138/112 
f 112/138/112 111/135/111 54/137/54 45/143/45 
f 15/15/15 14/14/14 114/140/114 117/146/117 
f 117/146/117 114/140/114 116/142/116 120/151/120 
f 16/16/16 15/15/15 119/148/119 122/154/122 
f 122/154/122 119/148/119 78/150/78 69/157/69 
f 13/13/13 16/16/16 124/156/124 109/133/109 
f 109/133/109 124/156/124 102/117/102 98/106/98 
f 18/18/18 17/17/17 127/161/127 128/167/128 
f 128/174/128 127/162/127 46/46/46 37/37/37 
f 19/19/19 18/18/18 130/169/130 133/178/133 
f 133/183/133 130/170/130 132/173/132 136/184/136 
f 20/20/20 19/19/19 135/180/135 138/189/138 
f 138/194/138 135/181/135 86/86/86 77/77/77 
f 17/17/17 20/20/20 140/191/140 125/159/125 
f 125/164/125 140/192/140 120/151/120 116/142/116 
f 22/22/22 21/21/21 143/199/143 144/202/144 
f 144/202/144 143/199/143 38/201/38 29/205/29 
f 23/23/23 22/22/22 146/204/146 147/207/147 
f 147/207/147 146/204/146 92/95/92 108/128/108 
f 24/24/24 23/23/23 149/209/149 150/212/150 
f 150/212/150 149/209/149 62/211/62 85/215/85 
f 21/21/21 24/24/24 152/214/152 141/197/141 
f 141/197/141 152/214/152 136/184/136 132/173/132 
# 150 polygons

